<!-- Generator: Adobe Illustrator 18.0.0, SVG Export Plug-In  -->
<svg version="1.1"
	 xmlns="http://www.w3.org/2000/svg" xmlns:xlink="http://www.w3.org/1999/xlink" xmlns:a="http://ns.adobe.com/AdobeSVGViewerExtensions/3.0/"
	 x="0px" y="0px" width="27.2px" height="48px" viewBox="0 0 27.2 48" enable-background="new 0 0 27.2 48" xml:space="preserve">
<defs>
</defs>
<path d="M23.7,0H3.5C1.6,0,0,1.6,0,3.5v41C0,46.4,1.6,48,3.5,48h20.2c1.9,0,3.5-1.6,3.5-3.5v-41C27.2,1.6,25.6,0,23.7,0L23.7,0z
	 M1.6,6.4h24v35.2h-24V6.4z M3.5,1.6h20.2c1.1,0,1.9,0.9,1.9,1.9v1.3h-24V3.5C1.6,2.5,2.5,1.6,3.5,1.6L3.5,1.6z M23.7,46.4H3.5
	c-1.1,0-1.9-0.9-1.9-1.9v-1.3h24v1.3C25.6,45.5,24.7,46.4,23.7,46.4L23.7,46.4z M23.7,46.4"/>
<path d="M13.6,45.8c-0.6,0-1.2-0.5-1.2-1.2c0-0.6,0.5-1.2,1.2-1.2c0.6,0,1.2,0.5,1.2,1.2C14.8,45.3,14.2,45.8,13.6,45.8L13.6,45.8z
	 M13.6,45.8"/>
<path d="M10.4,4h3.2c0.4,0,0.8-0.4,0.8-0.8c0-0.4-0.4-0.8-0.8-0.8h-3.2c-0.4,0-0.8,0.4-0.8,0.8C9.6,3.6,10,4,10.4,4L10.4,4z M10.4,4
	"/>
<path d="M16,4h0.8c0.4,0,0.8-0.4,0.8-0.8c0-0.4-0.4-0.8-0.8-0.8H16c-0.4,0-0.8,0.4-0.8,0.8C15.2,3.6,15.6,4,16,4L16,4z M16,4"/>
</svg>