<!-- Generator: Adobe Illustrator 18.0.0, SVG Export Plug-In  -->
<svg version="1.1"
	 xmlns="http://www.w3.org/2000/svg" xmlns:xlink="http://www.w3.org/1999/xlink" xmlns:a="http://ns.adobe.com/AdobeSVGViewerExtensions/3.0/"
	 x="0px" y="0px" width="362.3px" height="336px" viewBox="0 0 362.3 336" enable-background="new 0 0 362.3 336"
	 xml:space="preserve">
<defs>
</defs>
<g>
	<path d="M359.6,139.2l-46.3-30.7V6c0-3.3-2.7-6-6-6H54.9c-3.3,0-6,2.7-6,6v102.5L2.7,139.2h0c-1.6,1.1-2.7,2.9-2.7,5V330
		c0,3.3,2.7,6,6,6h350.3c3.3,0,6-2.7,6-6V144.2C362.3,142.1,361.2,140.3,359.6,139.2L359.6,139.2z M48.9,160.2l-18.8-10h18.8V160.2z
		 M12,154.2l138,73.2L12,318.8V154.2z M181.1,221.1L336.4,324H25.9L181.1,221.1z M212.3,227.3l138-73.2v164.7L212.3,227.3z
		 M313.3,150.2h18.8l-18.8,10V150.2z M336.4,138.2h-23v-15.3L336.4,138.2z M301.3,12v154.5l-100.4,53.3l-16.5-10.9
		c-2-1.3-4.6-1.3-6.6,0l-16.5,10.9L60.9,166.5V12H301.3z M48.9,138.2h-23l23-15.3V138.2z M48.9,138.2"/>
	<path d="M181.1,157.8h47.8c3.3,0,6-2.7,6-6c0-3.3-2.7-6-6-6h-47.8c-23.1,0-41.8-18.8-41.8-41.8v-1.8c0-23.1,18.8-41.8,41.8-41.8
		s41.8,18.8,41.8,41.8v4.4c0,5-4.1,9.1-9,9.1c-5,0-9.1-4.1-9.1-9.1v-8.4c0-14.3-11.6-25.9-25.9-25.9c-14.3,0-25.9,11.6-25.9,25.9
		c0,14.3,11.6,25.9,25.9,25.9c6.5,0,12.5-2.4,17.1-6.4c3.7,6,10.3,10,17.9,10c11.6,0,21-9.4,21-21.1v-4.4
		c0-29.7-24.1-53.8-53.8-53.8s-53.8,24.1-53.8,53.8v1.8C127.3,133.7,151.5,157.8,181.1,157.8L181.1,157.8z M178.9,112.2
		c-7.7,0-13.9-6.2-13.9-13.9c0-7.7,6.2-13.9,13.9-13.9c7.7,0,13.9,6.2,13.9,13.9C192.8,105.9,186.6,112.2,178.9,112.2L178.9,112.2z
		 M178.9,112.2"/>
</g>
</svg>