<!-- Generator: Adobe Illustrator 18.0.0, SVG Export Plug-In  -->
<svg version="1.1"
	 xmlns="http://www.w3.org/2000/svg" xmlns:xlink="http://www.w3.org/1999/xlink" xmlns:a="http://ns.adobe.com/AdobeSVGViewerExtensions/3.0/"
	 x="0px" y="0px" width="48.9px" height="48px" viewBox="0 0 48.9 48" enable-background="new 0 0 48.9 48" xml:space="preserve">
<defs>
</defs>
<g>
	<path d="M24.8,20.8c3.1,0,5.6-2.5,5.6-5.6s-2.5-5.6-5.6-5.6c-3.1,0-5.6,2.5-5.6,5.6S21.7,20.8,24.8,20.8L24.8,20.8z M24.8,11.2
		c2.2,0,4,1.8,4,4s-1.8,4-4,4c-2.2,0-4-1.8-4-4S22.5,11.2,24.8,11.2L24.8,11.2z M24.8,11.2"/>
	<path d="M40.2,29.6h-5.7l2.4-3.5c4.6-6.1,3.9-16.2-1.4-21.6C32.6,1.6,28.7,0,24.6,0c-4.1,0-7.9,1.6-10.8,4.5
		c-5.4,5.4-6,15.4-1.4,21.6l2.5,3.5h-6L0,48h48.9L40.2,29.6z M13.6,25.1c-4.2-5.5-3.6-14.7,1.3-19.5c2.6-2.6,6-4,9.7-4
		c3.7,0,7.1,1.4,9.7,4c4.8,4.8,5.4,13.9,1.3,19.5L24.6,41l-7.9-11.4L13.6,25.1z M9.8,31.2h6.1l8.7,12.6l8.7-12.6h5.8l7.2,15.2H2.5
		L9.8,31.2z M9.8,31.2"/>
</g>
</svg>